HIERARCHY
ROOT SpineBase
{
  OFFSET 0.000000 0.000000 0.000000
  CHANNELS 6 Xposition Yposition Zposition Zrotation Xrotation Yrotation
  JOINT SpineMid
  {
    OFFSET -0.000000 37.013243 0.000000
    CHANNELS 3 Zrotation Xrotation Yrotation
    JOINT SpineShoulder
    {
      OFFSET 0.021581 27.470960 -0.977642
      CHANNELS 3 Zrotation Xrotation Yrotation
      JOINT Neck
      {
        OFFSET 0.025658 9.083088 -0.720719
        CHANNELS 3 Zrotation Xrotation Yrotation
        JOINT Head
        {
          OFFSET 0.514829 14.398614 3.066461
          CHANNELS 3 Zrotation Xrotation Yrotation
          End Site
          {
            OFFSET 0 0 0
          }
        }
      }
      JOINT ShoulderLeft
      {
        OFFSET -15.033368 -4.693709 -7.733135
        CHANNELS 3 Zrotation Xrotation Yrotation
        JOINT ElbowLeft
        {
          OFFSET -1.545831 -33.793786 -6.911349
          CHANNELS 3 Zrotation Xrotation Yrotation
          JOINT WristLeft
          {
            OFFSET 3.210157 -25.335479 -7.254179
            CHANNELS 3 Zrotation Xrotation Yrotation
            JOINT HandLeft
            {
              OFFSET 0.799090 -3.860061 -13.633137
              CHANNELS 3 Zrotation Xrotation Yrotation
              JOINT HandTipLeft
              {
                OFFSET 1.517309 -4.477585 -4.275842
                CHANNELS 3 Zrotation Xrotation Yrotation
                End Site
                {
                  OFFSET 0 0 0
                }
              }
              JOINT ThumbLeft
              {
                OFFSET 4.500800 -4.939690 -6.880364
                CHANNELS 3 Zrotation Xrotation Yrotation
                End Site
                {
                  OFFSET 0 0 0
                }
              }
            }
          }
        }
      }
      JOINT ShoulderRight
      {
        OFFSET 18.029966 -3.432746 5.684074
        CHANNELS 3 Zrotation Xrotation Yrotation
        JOINT ElbowRight
        {
          OFFSET 11.789027 -33.657904 0.037891
          CHANNELS 3 Zrotation Xrotation Yrotation
          JOINT WristRight
          {
            OFFSET 7.107159 -24.775122 -6.055666
            CHANNELS 3 Zrotation Xrotation Yrotation
            JOINT HandRight
            {
              OFFSET -2.964496 -2.760922 1.564367
              CHANNELS 3 Zrotation Xrotation Yrotation
              JOINT HandTipRight
              {
                OFFSET -0.396975 -3.448010 -2.430309
                CHANNELS 3 Zrotation Xrotation Yrotation
                End Site
                {
                  OFFSET 0 0 0
                }
              }
              JOINT ThumbRight
              {
                OFFSET -2.944847 -3.922211 -4.350753
                CHANNELS 3 Zrotation Xrotation Yrotation
                End Site
                {
                  OFFSET 0 0 0
                }
              }
            }
          }
        }
      }
    }
  }
  JOINT HipLeft
  {
    OFFSET -7.259997 1.018204 -6.710140
    CHANNELS 3 Zrotation Xrotation Yrotation
    JOINT KneeLeft
    {
      OFFSET -10.848185 -11.800378 -30.620715
      CHANNELS 3 Zrotation Xrotation Yrotation
      JOINT AnkleLeft
      {
        OFFSET -17.639203 -35.918726 23.890189
        CHANNELS 3 Zrotation Xrotation Yrotation
        JOINT FootLeft
        {
          OFFSET 2.034016 -12.955474 -0.980077
          CHANNELS 3 Zrotation Xrotation Yrotation
          End Site
          {
            OFFSET 0 0 0
          }
        }
      }
    }
  }
  JOINT HipRight
  {
    OFFSET 7.840461 1.637184 -1.623815
    CHANNELS 3 Zrotation Xrotation Yrotation
    JOINT KneeRight
    {
      OFFSET -0.056262 -4.473297 -42.969465
      CHANNELS 3 Zrotation Xrotation Yrotation
      JOINT AnkleRight
      {
        OFFSET -11.768385 -42.425621 6.960580
        CHANNELS 3 Zrotation Xrotation Yrotation
        JOINT FootRight
        {
          OFFSET 5.394850 -2.928262 -14.890736
          CHANNELS 3 Zrotation Xrotation Yrotation
          End Site
          {
            OFFSET 0 0 0
          }
        }
      }
    }
  }
}
MOTION
Frames: 5
Frame Time: 0.033333
-24.166456 66.606308 349.682984 0.000000 0.000000 -18.615197 0.000000 -0.000000 18.615197 -0.000000 0.000000 0.000000 -0.000000 0.000000 0.000000 0.000000 0.000000 0.000000 -0.000000 0.000000 0.000000 -0.000000 0.000000 0.000000 -0.000000 0.000000 0.000000 -0.000000 0.000000 0.000000 0.000000 0.000000 0.000000 0.000000 0.000000 0.000000 -0.000000 0.000000 0.000000 -0.000000 0.000000 0.000000 -0.000000 0.000000 0.000000 -0.000000 0.000000 0.000000 0.000000 0.000000 0.000000 0.000000 0.000000 0.000000 0.000000 -0.000000 18.615197 -0.000000 0.000000 0.000000 -0.000000 0.000000 0.000000 0.000000 0.000000 0.000000 0.000000 -0.000000 18.615197 -0.000000 0.000000 0.000000 -0.000000 0.000000 0.000000 0.000000 0.000000 0.000000
-24.170493 66.602726 349.680959 0.018964 0.007347 -18.550475 -0.015641 -0.012999 18.550472 -0.000000 0.000000 0.000000 -0.000000 0.000000 0.000000 0.000000 0.000000 0.000000 -0.000000 0.000000 0.000000 -0.000000 0.000000 0.000000 0.006893 -0.968686 -0.231741 -0.010813 0.968650 0.231891 0.000000 0.000000 0.000000 0.000000 0.000000 0.000000 -0.000000 0.000000 0.000000 -0.000000 0.000000 0.000000 0.525683 -1.028370 1.406508 -3.098889 1.198739 0.470234 0.000000 0.000000 0.000000 0.000000 0.000000 0.000000 -0.734213 0.594109 19.069899 0.480837 -0.808529 -0.512391 0.612818 -1.240949 -0.234555 0.000000 0.000000 0.000000 -0.015641 -0.012999 18.550472 -0.000000 0.000000 0.000000 -0.000000 0.000000 0.000000 0.000000 0.000000 0.000000
-24.173172 66.598278 349.679648 0.037006 0.015626 -18.483391 -0.030143 -0.026552 18.483379 -0.000000 0.000000 0.000000 -0.378373 0.764749 0.055677 0.000000 0.000000 0.000000 -0.826934 -0.100550 0.172971 0.802129 0.968786 -0.056157 0.036085 -2.727344 -0.577388 -0.028843 1.856430 0.460356 0.000000 0.000000 0.000000 0.000000 0.000000 0.000000 -0.000000 0.000000 0.000000 -0.000000 0.000000 0.000000 0.902132 -1.854591 2.515072 -4.880280 2.186716 0.496313 0.000000 0.000000 0.000000 0.000000 0.000000 0.000000 -1.325647 1.065756 19.417706 0.858994 -1.460673 -0.911627 1.104337 -2.257258 -0.416213 0.000000 0.000000 0.000000 -0.030143 -0.026552 18.483379 -0.000000 0.000000 0.000000 -0.000000 0.000000 0.000000 0.000000 0.000000 0.000000
-24.174495 66.592963 349.679052 0.054128 0.024833 -18.413966 -0.043512 -0.040659 18.413939 -0.000000 0.000000 0.000000 -0.535620 1.065810 0.080770 0.000000 0.000000 0.000000 -1.159939 -0.136751 0.242051 1.130027 1.285655 -0.088514 0.046860 -3.802141 -0.835637 -0.053251 2.647863 0.681945 0.000000 0.000000 0.000000 0.000000 0.000000 0.000000 -0.000000 0.000000 0.000000 -0.000000 0.000000 0.000000 1.114326 -2.478949 3.310725 -5.947098 2.950996 0.452643 0.000000 0.000000 0.000000 0.000000 0.000000 0.000000 -1.770317 1.416334 19.653847 1.136921 -1.952436 -1.199801 1.473391 -3.040719 -0.549856 0.000000 0.000000 0.000000 -0.043512 -0.040659 18.413939 -0.000000 0.000000 0.000000 -0.000000 0.000000 0.000000 0.000000 0.000000 0.000000
-24.174459 66.586781 349.679170 0.070329 0.034968 -18.342221 -0.055752 -0.055324 18.342172 -0.000000 0.000000 0.000000 -0.670780 1.311014 0.103380 0.000000 0.000000 0.000000 -1.435599 -0.162804 0.298940 1.404868 1.490886 -0.122790 0.055115 -4.666795 -1.069095 0.461698 3.034169 0.244449 0.000000 0.000000 0.000000 0.000000 0.000000 0.000000 -0.000000 0.000000 0.000000 -0.000000 0.000000 0.000000 1.154401 -2.904535 3.787928 -6.547146 3.479894 0.484243 0.000000 0.000000 0.000000 0.000000 0.000000 0.000000 -2.065560 1.646973 19.774920 1.316554 -2.281155 -1.378614 1.719183 -3.585599 -0.639376 0.000000 0.000000 0.000000 -0.055752 -0.055324 18.342172 -0.000000 0.000000 0.000000 -0.000000 0.000000 0.000000 0.000000 0.000000 0.000000
